<?xml version="1.0" standalone="no"?>
<!DOCTYPE svg PUBLIC "-//W3C//DTD SVG 20010904//EN"
 "http://www.w3.org/TR/2001/REC-SVG-20010904/DTD/svg10.dtd">
<svg version="1.0" xmlns="http://www.w3.org/2000/svg"
 width="700.000000pt" height="700.000000pt" viewBox="0 0 700.000000 700.000000"
 preserveAspectRatio="xMidYMid meet">
<metadata>
Created by potrace 1.11, written by Peter Selinger 2001-2013
</metadata>
<g transform="translate(0.000000,700.000000) scale(0.100000,-0.100000)"
fill="#000000" stroke="none">
<path d="M2070 5103 c-200 -93 -461 -226 -575 -293 -136 -81 -245 -149 -255
-160 -3 -3 -41 -29 -85 -59 -296 -201 -628 -491 -891 -777 -84 -91 -125 -139
-226 -266 l-38 -46 57 -74 c154 -199 463 -518 653 -674 19 -16 44 -37 55 -48
47 -43 280 -221 405 -308 258 -180 615 -380 845 -473 39 -16 76 -33 83 -38 6
-5 12 -6 11 -1 -1 5 -36 41 -78 79 -94 86 -208 221 -293 346 -36 51 -67 99
-69 104 -2 6 -25 48 -50 95 -39 71 -72 145 -120 265 -10 27 -48 147 -54 171
-28 121 -54 266 -61 335 -14 145 -8 432 11 529 3 13 7 42 11 65 16 107 84 334
141 468 63 149 194 366 295 490 28 34 99 111 157 170 58 60 108 110 110 113 7
7 -2 4 -39 -13z"/>
<path d="M4890 5117 c0 -2 49 -52 108 -113 132 -133 194 -208 276 -333 151
-230 268 -510 309 -741 3 -14 8 -43 12 -65 4 -22 9 -49 11 -59 10 -56 19 -206
18 -311 0 -115 -11 -292 -18 -304 -2 -3 -7 -26 -10 -51 -3 -25 -17 -90 -30
-145 -97 -398 -309 -759 -614 -1047 -33 -32 -57 -58 -53 -58 12 0 201 84 274
122 34 18 64 32 67 33 3 0 16 7 30 15 14 7 52 28 85 45 564 298 1195 822 1584
1317 l60 76 -28 39 c-144 198 -467 531 -716 738 -38 33 -72 62 -75 65 -11 14
-263 202 -365 273 -228 158 -562 346 -795 446 -52 23 -103 46 -112 51 -10 6
-18 9 -18 7z"/>
<path d="M3015 4732 c-346 -138 -630 -427 -756 -772 -60 -166 -82 -292 -81
-470 3 -468 258 -905 663 -1137 135 -77 311 -140 444 -158 22 -3 51 -8 65 -11
30 -7 264 -6 300 1 14 2 41 7 61 9 189 24 439 134 603 264 323 257 504 625
508 1029 6 560 -351 1074 -874 1259 l-39 14 -161 -328 c-88 -180 -178 -366
-201 -414 -23 -48 -44 -87 -47 -88 -3 0 -21 35 -42 78 -71 151 -367 752 -370
752 -2 -1 -34 -13 -73 -28z"/>
</g>
</svg>
