<?xml version="1.0" encoding="iso-8859-1"?>
<!-- Generator: Adobe Illustrator 16.0.0, SVG Export Plug-In . SVG Version: 6.00 Build 0)  -->
<!DOCTYPE svg PUBLIC "-//W3C//DTD SVG 1.1//EN" "http://www.w3.org/Graphics/SVG/1.1/DTD/svg11.dtd">
<svg version="1.1" id="Capa_1" xmlns="http://www.w3.org/2000/svg" xmlns:xlink="http://www.w3.org/1999/xlink" x="0px" y="0px"
	 width="456.793px" height="456.792px" viewBox="0 0 456.793 456.792" style="enable-background:new 0 0 456.793 456.792;"
	 xml:space="preserve">
<g>
	<g>
		<path d="M448.947,218.474c-0.924-1.168-23.057-28.933-61-56.81c-22.51-16.538-45.9-29.606-69.648-39.035
			c29.926,25.463,48.918,63.395,48.918,105.768c0,42.373-18.992,80.306-48.92,105.769c23.75-9.429,47.141-22.497,69.648-39.035
			c37.945-27.876,60.078-55.642,61-56.81l7.848-9.924L448.947,218.474z"/>
		<path d="M138.495,122.628c-23.749,9.429-47.14,22.497-69.649,39.035c-37.944,27.876-60.077,55.642-61,56.81L0,228.396l7.846,9.924
			c0.923,1.168,23.056,28.933,61,56.81c22.51,16.538,45.9,29.606,69.649,39.035c-29.928-25.463-48.919-63.396-48.919-105.769
			C89.576,186.023,108.567,148.091,138.495,122.628z"/>
		<path d="M255.044,146.182l-26.648,54.578l-26.648-54.579c-34.686,11.235-59.773,43.788-59.773,82.215
			c0,47.729,38.692,86.422,86.422,86.422s86.421-38.692,86.421-86.422C314.818,189.969,289.73,157.417,255.044,146.182z"/>
	</g>
</g>
<g>
</g>
<g>
</g>
<g>
</g>
<g>
</g>
<g>
</g>
<g>
</g>
<g>
</g>
<g>
</g>
<g>
</g>
<g>
</g>
<g>
</g>
<g>
</g>
<g>
</g>
<g>
</g>
<g>
</g>
</svg>
